<svg width="800" height="870" viewBox="0 0 800 870" fill="none" xmlns="http://www.w3.org/2000/svg">
  <rect width="800" height="870" fill="#DDE5DA"/>
  <path d="M-30 684C125 540 247 531 380 577C541 632 647 579 846 431V912H-30V684Z" fill="#1E604F"/>
  <circle cx="632" cy="174" r="112" fill="#B8FF66"/>
  <circle cx="400" cy="318" r="145" fill="#F3F0E8"/>
  <path d="M248 344C263 234 322 163 414 163C512 163 570 242 558 365C524 311 480 277 411 269C349 262 297 286 248 344Z" fill="#171915"/>
  <path d="M341 427C379 448 424 448 463 425" stroke="#1E604F" stroke-width="10" stroke-linecap="round"/>
  <path d="M237 690C254 548 316 481 400 481C485 481 548 548 563 690H237Z" fill="#F3F0E8"/>
  <path d="M184 714C228 623 300 579 400 579C500 579 572 623 616 714V870H184V714Z" fill="#171915"/>
  <path d="M341 579L400 655L459 579" stroke="#B8FF66" stroke-width="6"/>
  <g opacity="0.42" stroke="#1E604F" stroke-width="2">
    <path d="M54 74H270"/>
    <path d="M54 91H211"/>
    <path d="M54 108H239"/>
  </g>
  <text x="54" y="147" fill="#1E604F" font-family="monospace" font-size="18" letter-spacing="4">YOUR PHOTO</text>
</svg>
